<svg width="200" height="200" viewBox="0 0 200 200" fill="none" xmlns="http://www.w3.org/2000/svg">
<rect y="-7.62939e-06" width="200" height="200" rx="15" fill="white"/>
<g clip-path="url(#clip0_126_547)">
<path d="M99.4792 34.5017C75.1954 34.5017 55.265 53.0974 53.125 76.823H145.833C143.693 53.0974 123.763 34.5017 99.4792 34.5017ZM117.208 59.5928C117.208 57.4605 118.936 55.7319 121.069 55.7319C123.201 55.7319 124.93 57.4605 124.93 59.5928C124.93 61.7251 123.201 63.4537 121.069 63.4537C118.936 63.4537 117.208 61.7251 117.208 59.5928ZM77.8897 63.4537C75.7574 63.4537 74.0288 61.7251 74.0288 59.5928C74.0288 57.4605 75.7574 55.7319 77.8897 55.7319C80.022 55.7319 81.7506 57.4605 81.7506 59.5928C81.7506 61.7251 80.022 63.4537 77.8897 63.4537Z" fill="#164863"/>
<path d="M118.867 44.5934C118.596 44.5934 118.324 44.5258 118.075 44.3809C117.316 43.9425 117.057 42.9729 117.493 42.2139L127.531 24.8156C127.97 24.0546 128.939 23.7939 129.698 24.2342C130.457 24.6727 130.716 25.6423 130.28 26.4013L120.242 43.7996C119.948 44.3095 119.415 44.5934 118.867 44.5934Z" fill="#164863"/>
<path d="M80.0915 44.5934C79.543 44.5934 79.0099 44.3075 78.7164 43.7996L68.6807 26.4013C68.2423 25.6423 68.503 24.6727 69.2601 24.2342C70.0172 23.7939 70.9887 24.0546 71.4272 24.8156L81.4648 42.2139C81.9032 42.9748 81.6425 43.9444 80.8834 44.3809C80.6343 44.5258 80.3619 44.5934 80.0915 44.5934Z" fill="#164863"/>
</g>
<path d="M113.541 136.893C113.541 252.817 59.8057 126.042 53.125 126.042C46.4444 126.042 88.3401 237.697 92.7803 134.877C92.7803 107.598 94.7643 87.4999 101.445 87.4999C108.126 87.4999 113.541 109.614 113.541 136.893Z" fill="#164863"/>
<defs>
<clipPath id="clip0_126_547">
<rect width="92.7083" height="92.7083" fill="white" transform="translate(53.125 7.2918)"/>
</clipPath>
</defs>
</svg>
