<svg width="434" height="1043" viewBox="0 0 434 1043" fill="none" xmlns="http://www.w3.org/2000/svg">
<rect x="71.5" y="0.5" width="289" height="123" rx="9.5" fill="#C2FEAD" stroke="black"/>
<rect x="0.5" y="279.5" width="433" height="155" rx="9.5" fill="#95BFE6" stroke="black"/>
<rect x="235.5" y="318.5" width="153" height="54" rx="9.5" fill="#DDEDFF" stroke="black"/>
<rect x="242.5" y="329.5" width="153" height="54" rx="9.5" fill="#DDEDFF" stroke="black"/>
<rect x="252.5" y="341.5" width="153" height="54" rx="9.5" fill="#DDEDFF" stroke="black"/>
<path d="M215.293 279.707C215.683 280.098 216.317 280.098 216.707 279.707L223.071 273.343C223.462 272.953 223.462 272.319 223.071 271.929C222.681 271.538 222.047 271.538 221.657 271.929L216 277.586L210.343 271.929C209.953 271.538 209.319 271.538 208.929 271.929C208.538 272.319 208.538 272.953 208.929 273.343L215.293 279.707ZM215 124V279H217V124H215Z" fill="white"/>
<path d="M215.293 590.707C215.683 591.098 216.317 591.098 216.707 590.707L223.071 584.343C223.462 583.953 223.462 583.319 223.071 582.929C222.681 582.538 222.047 582.538 221.657 582.929L216 588.586L210.343 582.929C209.953 582.538 209.319 582.538 208.929 582.929C208.538 583.319 208.538 583.953 208.929 584.343L215.293 590.707ZM215 435V590H217V435H215Z" fill="white"/>
<path d="M215.293 850.707C215.683 851.098 216.317 851.098 216.707 850.707L223.071 844.343C223.462 843.953 223.462 843.319 223.071 842.929C222.681 842.538 222.047 842.538 221.657 842.929L216 848.586L210.343 842.929C209.953 842.538 209.319 842.538 208.929 842.929C208.538 843.319 208.538 843.953 208.929 844.343L215.293 850.707ZM215 695V850H217V695H215Z" fill="white"/>
<rect x="38.5" y="590.5" width="358" height="104" rx="9.5" fill="#F4BE8C" stroke="black"/>
<rect x="0.5" y="850.5" width="433" height="192" rx="9.5" fill="#E5EEAB" stroke="black"/>
<rect x="188.5" y="955.5" width="208" height="61" rx="9.5" fill="#F9F8E9" stroke="black"/>
<path d="M235.929 997V974.6H244.313C246.212 974.6 247.844 974.909 249.209 975.528C250.575 976.125 251.62 977 252.345 978.152C253.092 979.283 253.465 980.659 253.465 982.28C253.465 983.859 253.092 985.224 252.345 986.376C251.62 987.507 250.575 988.381 249.209 989C247.844 989.597 246.212 989.896 244.313 989.896H237.241L238.297 988.808V997H235.929ZM251.225 997L245.465 988.872H248.025L253.817 997H251.225ZM238.297 989L237.241 987.88H244.249C246.489 987.88 248.185 987.389 249.337 986.408C250.511 985.427 251.097 984.051 251.097 982.28C251.097 980.488 250.511 979.101 249.337 978.12C248.185 977.139 246.489 976.648 244.249 976.648H237.241L238.297 975.528V989ZM265.71 997.16C263.961 997.16 262.425 996.797 261.102 996.072C259.78 995.325 258.745 994.312 257.998 993.032C257.252 991.731 256.878 990.248 256.878 988.584C256.878 986.92 257.23 985.448 257.934 984.168C258.66 982.888 259.641 981.885 260.878 981.16C262.137 980.413 263.545 980.04 265.102 980.04C266.681 980.04 268.078 980.403 269.294 981.128C270.532 981.832 271.502 982.835 272.206 984.136C272.91 985.416 273.262 986.899 273.262 988.584C273.262 988.691 273.252 988.808 273.23 988.936C273.23 989.043 273.23 989.16 273.23 989.288H258.606V987.592H272.014L271.118 988.264C271.118 987.048 270.852 985.971 270.318 985.032C269.806 984.072 269.102 983.325 268.206 982.792C267.31 982.259 266.276 981.992 265.102 981.992C263.95 981.992 262.916 982.259 261.998 982.792C261.081 983.325 260.366 984.072 259.854 985.032C259.342 985.992 259.086 987.091 259.086 988.328V988.68C259.086 989.96 259.364 991.091 259.918 992.072C260.494 993.032 261.284 993.789 262.286 994.344C263.31 994.877 264.473 995.144 265.774 995.144C266.798 995.144 267.748 994.963 268.622 994.6C269.518 994.237 270.286 993.683 270.926 992.936L272.206 994.408C271.46 995.304 270.521 995.987 269.39 996.456C268.281 996.925 267.054 997.16 265.71 997.16ZM283.199 997.16C281.62 997.16 280.404 996.733 279.551 995.88C278.697 995.027 278.271 993.821 278.271 992.264V976.488H280.543V992.136C280.543 993.117 280.788 993.875 281.279 994.408C281.791 994.941 282.516 995.208 283.455 995.208C284.457 995.208 285.289 994.92 285.951 994.344L286.751 995.976C286.303 996.381 285.759 996.68 285.119 996.872C284.5 997.064 283.86 997.16 283.199 997.16ZM275.263 982.088V980.2H285.663V982.088H275.263ZM290.887 997V980.2H293.063V984.776L292.839 983.976C293.308 982.696 294.097 981.725 295.207 981.064C296.316 980.381 297.692 980.04 299.335 980.04V982.248C299.249 982.248 299.164 982.248 299.079 982.248C298.993 982.227 298.908 982.216 298.823 982.216C297.052 982.216 295.665 982.76 294.663 983.848C293.66 984.915 293.159 986.44 293.159 988.424V997H290.887ZM310.172 997.16C308.551 997.16 307.09 996.797 305.788 996.072C304.508 995.325 303.495 994.312 302.748 993.032C302.002 991.731 301.628 990.248 301.628 988.584C301.628 986.899 302.002 985.416 302.748 984.136C303.495 982.856 304.508 981.853 305.788 981.128C307.068 980.403 308.53 980.04 310.172 980.04C311.836 980.04 313.308 980.403 314.588 981.128C315.89 981.853 316.903 982.856 317.628 984.136C318.375 985.416 318.748 986.899 318.748 988.584C318.748 990.248 318.375 991.731 317.628 993.032C316.903 994.312 315.89 995.325 314.588 996.072C313.287 996.797 311.815 997.16 310.172 997.16ZM310.172 995.144C311.388 995.144 312.466 994.877 313.404 994.344C314.343 993.789 315.079 993.021 315.612 992.04C316.167 991.037 316.444 989.885 316.444 988.584C316.444 987.261 316.167 986.109 315.612 985.128C315.079 984.147 314.343 983.389 313.404 982.856C312.466 982.301 311.399 982.024 310.204 982.024C309.01 982.024 307.943 982.301 307.004 982.856C306.066 983.389 305.319 984.147 304.764 985.128C304.21 986.109 303.932 987.261 303.932 988.584C303.932 989.885 304.21 991.037 304.764 992.04C305.319 993.021 306.066 993.789 307.004 994.344C307.943 994.877 308.999 995.144 310.172 995.144ZM323.771 997V978.088C323.771 976.595 324.208 975.389 325.083 974.472C325.957 973.555 327.216 973.096 328.859 973.096C329.499 973.096 330.117 973.181 330.715 973.352C331.312 973.523 331.813 973.789 332.219 974.152L331.451 975.848C331.131 975.571 330.757 975.368 330.331 975.24C329.904 975.091 329.445 975.016 328.955 975.016C327.995 975.016 327.259 975.283 326.747 975.816C326.235 976.349 325.979 977.139 325.979 978.184V980.744L326.043 981.8V997H323.771ZM320.763 982.088V980.2H331.163V982.088H320.763ZM334.235 997V980.2H336.507V997H334.235ZM335.387 976.488C334.917 976.488 334.523 976.328 334.203 976.008C333.883 975.688 333.723 975.304 333.723 974.856C333.723 974.408 333.883 974.035 334.203 973.736C334.523 973.416 334.917 973.256 335.387 973.256C335.856 973.256 336.251 973.405 336.571 973.704C336.891 974.003 337.051 974.376 337.051 974.824C337.051 975.293 336.891 975.688 336.571 976.008C336.272 976.328 335.877 976.488 335.387 976.488ZM348.199 997.16C346.62 997.16 345.404 996.733 344.551 995.88C343.697 995.027 343.271 993.821 343.271 992.264V976.488H345.543V992.136C345.543 993.117 345.788 993.875 346.279 994.408C346.791 994.941 347.516 995.208 348.455 995.208C349.457 995.208 350.289 994.92 350.951 994.344L351.751 995.976C351.303 996.381 350.759 996.68 350.119 996.872C349.5 997.064 348.86 997.16 348.199 997.16ZM340.263 982.088V980.2H350.663V982.088H340.263Z" fill="black"/>
<path d="M54.7261 914V891.6H63.1101C65.0088 891.6 66.6408 891.909 68.0061 892.528C69.3715 893.125 70.4168 894 71.1421 895.152C71.8888 896.283 72.2621 897.659 72.2621 899.28C72.2621 900.859 71.8888 902.224 71.1421 903.376C70.4168 904.507 69.3715 905.381 68.0061 906C66.6408 906.597 65.0088 906.896 63.1101 906.896H56.0381L57.0941 905.808V914H54.7261ZM70.0221 914L64.2621 905.872H66.8221L72.6141 914H70.0221ZM57.0941 906L56.0381 904.88H63.0461C65.2861 904.88 66.9821 904.389 68.1341 903.408C69.3075 902.427 69.8941 901.051 69.8941 899.28C69.8941 897.488 69.3075 896.101 68.1341 895.12C66.9821 894.139 65.2861 893.648 63.0461 893.648H56.0381L57.0941 892.528V906ZM84.5071 914.16C82.7578 914.16 81.2218 913.797 79.8991 913.072C78.5765 912.325 77.5418 911.312 76.7951 910.032C76.0485 908.731 75.6751 907.248 75.6751 905.584C75.6751 903.92 76.0271 902.448 76.7311 901.168C77.4565 899.888 78.4378 898.885 79.6751 898.16C80.9338 897.413 82.3418 897.04 83.8991 897.04C85.4778 897.04 86.8751 897.403 88.0911 898.128C89.3285 898.832 90.2991 899.835 91.0031 901.136C91.7071 902.416 92.0591 903.899 92.0591 905.584C92.0591 905.691 92.0485 905.808 92.0271 905.936C92.0271 906.043 92.0271 906.16 92.0271 906.288H77.4031V904.592H90.8111L89.9151 905.264C89.9151 904.048 89.6485 902.971 89.1151 902.032C88.6031 901.072 87.8991 900.325 87.0031 899.792C86.1071 899.259 85.0725 898.992 83.8991 898.992C82.7471 898.992 81.7125 899.259 80.7951 899.792C79.8778 900.325 79.1631 901.072 78.6511 902.032C78.1391 902.992 77.8831 904.091 77.8831 905.328V905.68C77.8831 906.96 78.1605 908.091 78.7151 909.072C79.2911 910.032 80.0805 910.789 81.0831 911.344C82.1071 911.877 83.2698 912.144 84.5711 912.144C85.5951 912.144 86.5445 911.963 87.4191 911.6C88.3151 911.237 89.0831 910.683 89.7231 909.936L91.0031 911.408C90.2565 912.304 89.3178 912.987 88.1871 913.456C87.0778 913.925 85.8511 914.16 84.5071 914.16ZM117.676 897.04C119.041 897.04 120.225 897.307 121.228 897.84C122.252 898.352 123.041 899.141 123.596 900.208C124.172 901.275 124.46 902.619 124.46 904.24V914H122.188V904.464C122.188 902.693 121.761 901.36 120.908 900.464C120.076 899.547 118.892 899.088 117.356 899.088C116.204 899.088 115.201 899.333 114.348 899.824C113.516 900.293 112.865 900.987 112.396 901.904C111.948 902.8 111.724 903.888 111.724 905.168V914H109.452V904.464C109.452 902.693 109.025 901.36 108.172 900.464C107.318 899.547 106.124 899.088 104.588 899.088C103.457 899.088 102.465 899.333 101.612 899.824C100.758 900.293 100.097 900.987 99.6276 901.904C99.1796 902.8 98.9556 903.888 98.9556 905.168V914H96.6836V897.2H98.8596V901.744L98.5076 900.944C99.0196 899.728 99.841 898.779 100.972 898.096C102.124 897.392 103.478 897.04 105.036 897.04C106.678 897.04 108.076 897.456 109.228 898.288C110.38 899.099 111.126 900.325 111.468 901.968L110.572 901.616C111.062 900.251 111.926 899.152 113.164 898.32C114.422 897.467 115.926 897.04 117.676 897.04ZM137.469 914.16C135.848 914.16 134.386 913.797 133.085 913.072C131.805 912.325 130.792 911.312 130.045 910.032C129.298 908.731 128.925 907.248 128.925 905.584C128.925 903.899 129.298 902.416 130.045 901.136C130.792 899.856 131.805 898.853 133.085 898.128C134.365 897.403 135.826 897.04 137.469 897.04C139.133 897.04 140.605 897.403 141.885 898.128C143.186 898.853 144.2 899.856 144.925 901.136C145.672 902.416 146.045 903.899 146.045 905.584C146.045 907.248 145.672 908.731 144.925 910.032C144.2 911.312 143.186 912.325 141.885 913.072C140.584 913.797 139.112 914.16 137.469 914.16ZM137.469 912.144C138.685 912.144 139.762 911.877 140.701 911.344C141.64 910.789 142.376 910.021 142.909 909.04C143.464 908.037 143.741 906.885 143.741 905.584C143.741 904.261 143.464 903.109 142.909 902.128C142.376 901.147 141.64 900.389 140.701 899.856C139.762 899.301 138.696 899.024 137.501 899.024C136.306 899.024 135.24 899.301 134.301 899.856C133.362 900.389 132.616 901.147 132.061 902.128C131.506 903.109 131.229 904.261 131.229 905.584C131.229 906.885 131.506 908.037 132.061 909.04C132.616 910.021 133.362 910.789 134.301 911.344C135.24 911.877 136.296 912.144 137.469 912.144ZM155.996 914.16C154.417 914.16 153.201 913.733 152.348 912.88C151.494 912.027 151.068 910.821 151.068 909.264V893.488H153.34V909.136C153.34 910.117 153.585 910.875 154.076 911.408C154.588 911.941 155.313 912.208 156.252 912.208C157.254 912.208 158.086 911.92 158.748 911.344L159.548 912.976C159.1 913.381 158.556 913.68 157.916 913.872C157.297 914.064 156.657 914.16 155.996 914.16ZM148.06 899.088V897.2H158.46V899.088H148.06ZM170.226 914.16C168.477 914.16 166.941 913.797 165.618 913.072C164.295 912.325 163.261 911.312 162.514 910.032C161.767 908.731 161.394 907.248 161.394 905.584C161.394 903.92 161.746 902.448 162.45 901.168C163.175 899.888 164.157 898.885 165.394 898.16C166.653 897.413 168.061 897.04 169.618 897.04C171.197 897.04 172.594 897.403 173.81 898.128C175.047 898.832 176.018 899.835 176.722 901.136C177.426 902.416 177.778 903.899 177.778 905.584C177.778 905.691 177.767 905.808 177.746 905.936C177.746 906.043 177.746 906.16 177.746 906.288H163.122V904.592H176.53L175.634 905.264C175.634 904.048 175.367 902.971 174.834 902.032C174.322 901.072 173.618 900.325 172.722 899.792C171.826 899.259 170.791 898.992 169.618 898.992C168.466 898.992 167.431 899.259 166.514 899.792C165.597 900.325 164.882 901.072 164.37 902.032C163.858 902.992 163.602 904.091 163.602 905.328V905.68C163.602 906.96 163.879 908.091 164.434 909.072C165.01 910.032 165.799 910.789 166.802 911.344C167.826 911.877 168.989 912.144 170.29 912.144C171.314 912.144 172.263 911.963 173.138 911.6C174.034 911.237 174.802 910.683 175.442 909.936L176.722 911.408C175.975 912.304 175.037 912.987 173.906 913.456C172.797 913.925 171.57 914.16 170.226 914.16ZM191.257 914V891.6H200.377C202.767 891.6 204.857 892.08 206.649 893.04C208.463 893.979 209.871 895.291 210.873 896.976C211.876 898.661 212.377 900.603 212.377 902.8C212.377 904.997 211.876 906.939 210.873 908.624C209.871 910.309 208.463 911.632 206.649 912.592C204.857 913.531 202.767 914 200.377 914H191.257ZM193.625 911.952H200.249C202.233 911.952 203.951 911.568 205.401 910.8C206.873 910.011 208.015 908.933 208.825 907.568C209.636 906.181 210.041 904.592 210.041 902.8C210.041 900.987 209.636 899.397 208.825 898.032C208.015 896.667 206.873 895.6 205.401 894.832C203.951 894.043 202.233 893.648 200.249 893.648H193.625V911.952ZM227.743 914V910.288L227.647 909.68V903.472C227.647 902.043 227.242 900.944 226.431 900.176C225.642 899.408 224.458 899.024 222.879 899.024C221.791 899.024 220.756 899.205 219.775 899.568C218.794 899.931 217.962 900.411 217.279 901.008L216.255 899.312C217.108 898.587 218.132 898.032 219.327 897.648C220.522 897.243 221.78 897.04 223.103 897.04C225.279 897.04 226.954 897.584 228.127 898.672C229.322 899.739 229.919 901.371 229.919 903.568V914H227.743ZM221.951 914.16C220.692 914.16 219.594 913.957 218.655 913.552C217.738 913.125 217.034 912.549 216.543 911.824C216.052 911.077 215.807 910.224 215.807 909.264C215.807 908.389 216.01 907.6 216.415 906.896C216.842 906.171 217.524 905.595 218.463 905.168C219.423 904.72 220.703 904.496 222.303 904.496H228.095V906.192H222.367C220.746 906.192 219.615 906.48 218.975 907.056C218.356 907.632 218.047 908.347 218.047 909.2C218.047 910.16 218.42 910.928 219.167 911.504C219.914 912.08 220.959 912.368 222.303 912.368C223.583 912.368 224.682 912.08 225.599 911.504C226.538 910.907 227.22 910.053 227.647 908.944L228.159 910.512C227.732 911.621 226.986 912.507 225.919 913.168C224.874 913.829 223.551 914.16 221.951 914.16ZM241.402 914.16C239.823 914.16 238.607 913.733 237.754 912.88C236.901 912.027 236.474 910.821 236.474 909.264V893.488H238.746V909.136C238.746 910.117 238.991 910.875 239.482 911.408C239.994 911.941 240.719 912.208 241.658 912.208C242.661 912.208 243.493 911.92 244.154 911.344L244.954 912.976C244.506 913.381 243.962 913.68 243.322 913.872C242.703 914.064 242.063 914.16 241.402 914.16ZM233.466 899.088V897.2H243.866V899.088H233.466ZM259.618 914V910.288L259.522 909.68V903.472C259.522 902.043 259.117 900.944 258.306 900.176C257.517 899.408 256.333 899.024 254.754 899.024C253.666 899.024 252.631 899.205 251.65 899.568C250.669 899.931 249.837 900.411 249.154 901.008L248.13 899.312C248.983 898.587 250.007 898.032 251.202 897.648C252.397 897.243 253.655 897.04 254.978 897.04C257.154 897.04 258.829 897.584 260.002 898.672C261.197 899.739 261.794 901.371 261.794 903.568V914H259.618ZM253.826 914.16C252.567 914.16 251.469 913.957 250.53 913.552C249.613 913.125 248.909 912.549 248.418 911.824C247.927 911.077 247.682 910.224 247.682 909.264C247.682 908.389 247.885 907.6 248.29 906.896C248.717 906.171 249.399 905.595 250.338 905.168C251.298 904.72 252.578 904.496 254.178 904.496H259.97V906.192H254.242C252.621 906.192 251.49 906.48 250.85 907.056C250.231 907.632 249.922 908.347 249.922 909.2C249.922 910.16 250.295 910.928 251.042 911.504C251.789 912.08 252.834 912.368 254.178 912.368C255.458 912.368 256.557 912.08 257.474 911.504C258.413 910.907 259.095 910.053 259.522 908.944L260.034 910.512C259.607 911.621 258.861 912.507 257.794 913.168C256.749 913.829 255.426 914.16 253.826 914.16ZM282.996 914.192C281.332 914.192 279.732 913.925 278.196 913.392C276.681 912.837 275.508 912.133 274.676 911.28L275.604 909.456C276.393 910.224 277.449 910.875 278.772 911.408C280.116 911.92 281.524 912.176 282.996 912.176C284.404 912.176 285.545 912.005 286.42 911.664C287.316 911.301 287.967 910.821 288.372 910.224C288.799 909.627 289.012 908.965 289.012 908.24C289.012 907.365 288.756 906.661 288.244 906.128C287.753 905.595 287.103 905.179 286.292 904.88C285.481 904.56 284.585 904.283 283.604 904.048C282.623 903.813 281.641 903.568 280.66 903.312C279.679 903.035 278.772 902.672 277.94 902.224C277.129 901.776 276.468 901.189 275.956 900.464C275.465 899.717 275.22 898.747 275.22 897.552C275.22 896.443 275.508 895.429 276.084 894.512C276.681 893.573 277.588 892.827 278.804 892.272C280.02 891.696 281.577 891.408 283.476 891.408C284.735 891.408 285.983 891.589 287.22 891.952C288.457 892.293 289.524 892.773 290.42 893.392L289.62 895.28C288.66 894.64 287.636 894.171 286.548 893.872C285.481 893.573 284.447 893.424 283.444 893.424C282.1 893.424 280.991 893.605 280.116 893.968C279.241 894.331 278.591 894.821 278.164 895.44C277.759 896.037 277.556 896.72 277.556 897.488C277.556 898.363 277.801 899.067 278.292 899.6C278.804 900.133 279.465 900.549 280.276 900.848C281.108 901.147 282.015 901.413 282.996 901.648C283.977 901.883 284.948 902.139 285.908 902.416C286.889 902.693 287.785 903.056 288.596 903.504C289.428 903.931 290.089 904.507 290.58 905.232C291.092 905.957 291.348 906.907 291.348 908.08C291.348 909.168 291.049 910.181 290.452 911.12C289.855 912.037 288.937 912.784 287.7 913.36C286.484 913.915 284.916 914.192 282.996 914.192ZM302.875 914.16C301.254 914.16 299.793 913.797 298.491 913.072C297.211 912.325 296.198 911.312 295.451 910.032C294.705 908.731 294.331 907.248 294.331 905.584C294.331 903.899 294.705 902.416 295.451 901.136C296.198 899.856 297.211 898.853 298.491 898.128C299.771 897.403 301.233 897.04 302.875 897.04C304.539 897.04 306.011 897.403 307.291 898.128C308.593 898.853 309.606 899.856 310.331 901.136C311.078 902.416 311.451 903.899 311.451 905.584C311.451 907.248 311.078 908.731 310.331 910.032C309.606 911.312 308.593 912.325 307.291 913.072C305.99 913.797 304.518 914.16 302.875 914.16ZM302.875 912.144C304.091 912.144 305.169 911.877 306.107 911.344C307.046 910.789 307.782 910.021 308.315 909.04C308.87 908.037 309.147 906.885 309.147 905.584C309.147 904.261 308.87 903.109 308.315 902.128C307.782 901.147 307.046 900.389 306.107 899.856C305.169 899.301 304.102 899.024 302.907 899.024C301.713 899.024 300.646 899.301 299.707 899.856C298.769 900.389 298.022 901.147 297.467 902.128C296.913 903.109 296.635 904.261 296.635 905.584C296.635 906.885 296.913 908.037 297.467 909.04C298.022 910.021 298.769 910.789 299.707 911.344C300.646 911.877 301.702 912.144 302.875 912.144ZM323.034 914.16C321.605 914.16 320.357 913.893 319.29 913.36C318.223 912.827 317.391 912.027 316.794 910.96C316.218 909.893 315.93 908.56 315.93 906.96V897.2H318.202V906.704C318.202 908.496 318.639 909.851 319.514 910.768C320.41 911.664 321.658 912.112 323.258 912.112C324.431 912.112 325.445 911.877 326.298 911.408C327.173 910.917 327.834 910.213 328.282 909.296C328.751 908.379 328.986 907.28 328.986 906V897.2H331.258V914H329.082V909.392L329.434 910.224C328.901 911.461 328.069 912.432 326.938 913.136C325.829 913.819 324.527 914.16 323.034 914.16ZM337.59 914V897.2H339.766V901.776L339.542 900.976C340.011 899.696 340.801 898.725 341.91 898.064C343.019 897.381 344.395 897.04 346.038 897.04V899.248C345.953 899.248 345.867 899.248 345.782 899.248C345.697 899.227 345.611 899.216 345.526 899.216C343.755 899.216 342.369 899.76 341.366 900.848C340.363 901.915 339.862 903.44 339.862 905.424V914H337.59ZM357.003 914.16C355.339 914.16 353.846 913.797 352.523 913.072C351.222 912.325 350.198 911.312 349.451 910.032C348.705 908.731 348.331 907.248 348.331 905.584C348.331 903.899 348.705 902.416 349.451 901.136C350.198 899.856 351.222 898.853 352.523 898.128C353.846 897.403 355.339 897.04 357.003 897.04C358.433 897.04 359.723 897.317 360.875 897.872C362.027 898.427 362.934 899.259 363.595 900.368L361.899 901.52C361.323 900.667 360.609 900.037 359.755 899.632C358.902 899.227 357.974 899.024 356.971 899.024C355.777 899.024 354.699 899.301 353.739 899.856C352.779 900.389 352.022 901.147 351.467 902.128C350.913 903.109 350.635 904.261 350.635 905.584C350.635 906.907 350.913 908.059 351.467 909.04C352.022 910.021 352.779 910.789 353.739 911.344C354.699 911.877 355.777 912.144 356.971 912.144C357.974 912.144 358.902 911.941 359.755 911.536C360.609 911.131 361.323 910.512 361.899 909.68L363.595 910.832C362.934 911.92 362.027 912.752 360.875 913.328C359.723 913.883 358.433 914.16 357.003 914.16ZM374.913 914.16C373.164 914.16 371.628 913.797 370.305 913.072C368.983 912.325 367.948 911.312 367.201 910.032C366.455 908.731 366.081 907.248 366.081 905.584C366.081 903.92 366.433 902.448 367.137 901.168C367.863 899.888 368.844 898.885 370.081 898.16C371.34 897.413 372.748 897.04 374.305 897.04C375.884 897.04 377.281 897.403 378.497 898.128C379.735 898.832 380.705 899.835 381.409 901.136C382.113 902.416 382.465 903.899 382.465 905.584C382.465 905.691 382.455 905.808 382.433 905.936C382.433 906.043 382.433 906.16 382.433 906.288H367.809V904.592H381.217L380.321 905.264C380.321 904.048 380.055 902.971 379.521 902.032C379.009 901.072 378.305 900.325 377.409 899.792C376.513 899.259 375.479 898.992 374.305 898.992C373.153 898.992 372.119 899.259 371.201 899.792C370.284 900.325 369.569 901.072 369.057 902.032C368.545 902.992 368.289 904.091 368.289 905.328V905.68C368.289 906.96 368.567 908.091 369.121 909.072C369.697 910.032 370.487 910.789 371.489 911.344C372.513 911.877 373.676 912.144 374.977 912.144C376.001 912.144 376.951 911.963 377.825 911.6C378.721 911.237 379.489 910.683 380.129 909.936L381.409 911.408C380.663 912.304 379.724 912.987 378.593 913.456C377.484 913.925 376.257 914.16 374.913 914.16Z" fill="black"/>
<path d="M133.882 654V631.6H142.266C144.165 631.6 145.797 631.909 147.162 632.528C148.528 633.125 149.573 634 150.298 635.152C151.045 636.283 151.418 637.659 151.418 639.28C151.418 640.859 151.045 642.224 150.298 643.376C149.573 644.507 148.528 645.381 147.162 646C145.797 646.597 144.165 646.896 142.266 646.896H135.194L136.25 645.808V654H133.882ZM149.178 654L143.418 645.872H145.978L151.77 654H149.178ZM136.25 646L135.194 644.88H142.202C144.442 644.88 146.138 644.389 147.29 643.408C148.464 642.427 149.05 641.051 149.05 639.28C149.05 637.488 148.464 636.101 147.29 635.12C146.138 634.139 144.442 633.648 142.202 633.648H135.194L136.25 632.528V646ZM163.663 654.16C161.914 654.16 160.378 653.797 159.055 653.072C157.733 652.325 156.698 651.312 155.951 650.032C155.205 648.731 154.831 647.248 154.831 645.584C154.831 643.92 155.183 642.448 155.887 641.168C156.613 639.888 157.594 638.885 158.831 638.16C160.09 637.413 161.498 637.04 163.055 637.04C164.634 637.04 166.031 637.403 167.247 638.128C168.485 638.832 169.455 639.835 170.159 641.136C170.863 642.416 171.215 643.899 171.215 645.584C171.215 645.691 171.205 645.808 171.183 645.936C171.183 646.043 171.183 646.16 171.183 646.288H156.559V644.592H169.967L169.071 645.264C169.071 644.048 168.805 642.971 168.271 642.032C167.759 641.072 167.055 640.325 166.159 639.792C165.263 639.259 164.229 638.992 163.055 638.992C161.903 638.992 160.869 639.259 159.951 639.792C159.034 640.325 158.319 641.072 157.807 642.032C157.295 642.992 157.039 644.091 157.039 645.328V645.68C157.039 646.96 157.317 648.091 157.871 649.072C158.447 650.032 159.237 650.789 160.239 651.344C161.263 651.877 162.426 652.144 163.727 652.144C164.751 652.144 165.701 651.963 166.575 651.6C167.471 651.237 168.239 650.683 168.879 649.936L170.159 651.408C169.413 652.304 168.474 652.987 167.343 653.456C166.234 653.925 165.007 654.16 163.663 654.16ZM184.512 654.16C183.061 654.16 181.749 653.829 180.576 653.168C179.403 652.485 178.464 651.515 177.76 650.256C177.077 648.976 176.736 647.419 176.736 645.584C176.736 643.749 177.077 642.203 177.76 640.944C178.443 639.664 179.371 638.693 180.544 638.032C181.717 637.371 183.04 637.04 184.512 637.04C186.112 637.04 187.541 637.403 188.8 638.128C190.08 638.832 191.083 639.835 191.808 641.136C192.533 642.416 192.896 643.899 192.896 645.584C192.896 647.291 192.533 648.784 191.808 650.064C191.083 651.344 190.08 652.347 188.8 653.072C187.541 653.797 186.112 654.16 184.512 654.16ZM175.84 660.208V637.2H178.016V642.256L177.792 645.616L178.112 649.008V660.208H175.84ZM184.352 652.144C185.547 652.144 186.613 651.877 187.552 651.344C188.491 650.789 189.237 650.021 189.792 649.04C190.347 648.037 190.624 646.885 190.624 645.584C190.624 644.283 190.347 643.141 189.792 642.16C189.237 641.179 188.491 640.411 187.552 639.856C186.613 639.301 185.547 639.024 184.352 639.024C183.157 639.024 182.08 639.301 181.12 639.856C180.181 640.411 179.435 641.179 178.88 642.16C178.347 643.141 178.08 644.283 178.08 645.584C178.08 646.885 178.347 648.037 178.88 649.04C179.435 650.021 180.181 650.789 181.12 651.344C182.08 651.877 183.157 652.144 184.352 652.144ZM204.375 654.16C202.754 654.16 201.293 653.797 199.991 653.072C198.711 652.325 197.698 651.312 196.951 650.032C196.205 648.731 195.831 647.248 195.831 645.584C195.831 643.899 196.205 642.416 196.951 641.136C197.698 639.856 198.711 638.853 199.991 638.128C201.271 637.403 202.733 637.04 204.375 637.04C206.039 637.04 207.511 637.403 208.791 638.128C210.093 638.853 211.106 639.856 211.831 641.136C212.578 642.416 212.951 643.899 212.951 645.584C212.951 647.248 212.578 648.731 211.831 650.032C211.106 651.312 210.093 652.325 208.791 653.072C207.49 653.797 206.018 654.16 204.375 654.16ZM204.375 652.144C205.591 652.144 206.669 651.877 207.607 651.344C208.546 650.789 209.282 650.021 209.815 649.04C210.37 648.037 210.647 646.885 210.647 645.584C210.647 644.261 210.37 643.109 209.815 642.128C209.282 641.147 208.546 640.389 207.607 639.856C206.669 639.301 205.602 639.024 204.407 639.024C203.213 639.024 202.146 639.301 201.207 639.856C200.269 640.389 199.522 641.147 198.967 642.128C198.413 643.109 198.135 644.261 198.135 645.584C198.135 646.885 198.413 648.037 198.967 649.04C199.522 650.021 200.269 650.789 201.207 651.344C202.146 651.877 203.202 652.144 204.375 652.144ZM222.102 654.16C220.715 654.16 219.403 653.968 218.166 653.584C216.929 653.179 215.958 652.677 215.254 652.08L216.278 650.288C216.961 650.8 217.835 651.248 218.902 651.632C219.969 651.995 221.089 652.176 222.262 652.176C223.862 652.176 225.014 651.931 225.718 651.44C226.422 650.928 226.774 650.256 226.774 649.424C226.774 648.805 226.571 648.325 226.166 647.984C225.782 647.621 225.27 647.355 224.63 647.184C223.99 646.992 223.275 646.832 222.486 646.704C221.697 646.576 220.907 646.427 220.118 646.256C219.35 646.085 218.646 645.84 218.006 645.52C217.366 645.179 216.843 644.72 216.438 644.144C216.054 643.568 215.862 642.8 215.862 641.84C215.862 640.923 216.118 640.101 216.63 639.376C217.142 638.651 217.889 638.085 218.87 637.68C219.873 637.253 221.089 637.04 222.518 637.04C223.606 637.04 224.694 637.189 225.782 637.488C226.87 637.765 227.766 638.139 228.47 638.608L227.478 640.432C226.731 639.92 225.931 639.557 225.078 639.344C224.225 639.109 223.371 638.992 222.518 638.992C221.003 638.992 219.883 639.259 219.158 639.792C218.454 640.304 218.102 640.965 218.102 641.776C218.102 642.416 218.294 642.917 218.678 643.28C219.083 643.643 219.606 643.931 220.246 644.144C220.907 644.336 221.622 644.496 222.39 644.624C223.179 644.752 223.958 644.912 224.726 645.104C225.515 645.275 226.23 645.52 226.87 645.84C227.531 646.139 228.054 646.576 228.438 647.152C228.843 647.707 229.046 648.443 229.046 649.36C229.046 650.341 228.769 651.195 228.214 651.92C227.681 652.624 226.891 653.179 225.846 653.584C224.822 653.968 223.574 654.16 222.102 654.16ZM233.215 654V637.2H235.487V654H233.215ZM234.367 633.488C233.898 633.488 233.503 633.328 233.183 633.008C232.863 632.688 232.703 632.304 232.703 631.856C232.703 631.408 232.863 631.035 233.183 630.736C233.503 630.416 233.898 630.256 234.367 630.256C234.836 630.256 235.231 630.405 235.551 630.704C235.871 631.003 236.031 631.376 236.031 631.824C236.031 632.293 235.871 632.688 235.551 633.008C235.252 633.328 234.858 633.488 234.367 633.488ZM247.121 654.16C245.542 654.16 244.326 653.733 243.473 652.88C242.619 652.027 242.193 650.821 242.193 649.264V633.488H244.465V649.136C244.465 650.117 244.71 650.875 245.201 651.408C245.713 651.941 246.438 652.208 247.377 652.208C248.379 652.208 249.211 651.92 249.873 651.344L250.673 652.976C250.225 653.381 249.681 653.68 249.041 653.872C248.422 654.064 247.782 654.16 247.121 654.16ZM239.185 639.088V637.2H249.585V639.088H239.185ZM261.063 654.16C259.442 654.16 257.98 653.797 256.679 653.072C255.399 652.325 254.386 651.312 253.639 650.032C252.892 648.731 252.519 647.248 252.519 645.584C252.519 643.899 252.892 642.416 253.639 641.136C254.386 639.856 255.399 638.853 256.679 638.128C257.959 637.403 259.42 637.04 261.063 637.04C262.727 637.04 264.199 637.403 265.479 638.128C266.78 638.853 267.794 639.856 268.519 641.136C269.266 642.416 269.639 643.899 269.639 645.584C269.639 647.248 269.266 648.731 268.519 650.032C267.794 651.312 266.78 652.325 265.479 653.072C264.178 653.797 262.706 654.16 261.063 654.16ZM261.063 652.144C262.279 652.144 263.356 651.877 264.295 651.344C265.234 650.789 265.97 650.021 266.503 649.04C267.058 648.037 267.335 646.885 267.335 645.584C267.335 644.261 267.058 643.109 266.503 642.128C265.97 641.147 265.234 640.389 264.295 639.856C263.356 639.301 262.29 639.024 261.095 639.024C259.9 639.024 258.834 639.301 257.895 639.856C256.956 640.389 256.21 641.147 255.655 642.128C255.1 643.109 254.823 644.261 254.823 645.584C254.823 646.885 255.1 648.037 255.655 649.04C256.21 650.021 256.956 650.789 257.895 651.344C258.834 651.877 259.89 652.144 261.063 652.144ZM274.277 654V637.2H276.453V641.776L276.229 640.976C276.699 639.696 277.488 638.725 278.597 638.064C279.707 637.381 281.083 637.04 282.725 637.04V639.248C282.64 639.248 282.555 639.248 282.469 639.248C282.384 639.227 282.299 639.216 282.213 639.216C280.443 639.216 279.056 639.76 278.053 640.848C277.051 641.915 276.549 643.44 276.549 645.424V654H274.277ZM287.718 660.368C286.929 660.368 286.171 660.24 285.446 659.984C284.742 659.728 284.134 659.344 283.622 658.832L284.678 657.136C285.105 657.541 285.563 657.851 286.054 658.064C286.566 658.299 287.131 658.416 287.75 658.416C288.497 658.416 289.137 658.203 289.67 657.776C290.225 657.371 290.747 656.645 291.238 655.6L292.326 653.136L292.582 652.784L299.494 637.2H301.734L293.318 656.016C292.849 657.104 292.326 657.968 291.75 658.608C291.195 659.248 290.587 659.696 289.926 659.952C289.265 660.229 288.529 660.368 287.718 660.368ZM292.198 654.48L284.454 637.2H286.822L293.67 652.624L292.198 654.48Z" fill="black"/>
<path d="M36.1566 368L26.2366 345.6H28.7966L38.0766 366.688H36.6686L46.0126 345.6H48.4126L38.4926 368H36.1566ZM51.0899 368V351.2H53.3619V368H51.0899ZM52.2419 347.488C51.7725 347.488 51.3779 347.328 51.0579 347.008C50.7379 346.688 50.5779 346.304 50.5779 345.856C50.5779 345.408 50.7379 345.035 51.0579 344.736C51.3779 344.416 51.7725 344.256 52.2419 344.256C52.7112 344.256 53.1059 344.405 53.4259 344.704C53.7459 345.003 53.9059 345.376 53.9059 345.824C53.9059 346.293 53.7459 346.688 53.4259 347.008C53.1272 347.328 52.7325 347.488 52.2419 347.488ZM66.8196 368.16C65.0703 368.16 63.5343 367.797 62.2116 367.072C60.889 366.325 59.8543 365.312 59.1076 364.032C58.361 362.731 57.9876 361.248 57.9876 359.584C57.9876 357.92 58.3396 356.448 59.0436 355.168C59.769 353.888 60.7503 352.885 61.9876 352.16C63.2463 351.413 64.6543 351.04 66.2116 351.04C67.7903 351.04 69.1876 351.403 70.4036 352.128C71.641 352.832 72.6116 353.835 73.3156 355.136C74.0196 356.416 74.3716 357.899 74.3716 359.584C74.3716 359.691 74.361 359.808 74.3396 359.936C74.3396 360.043 74.3396 360.16 74.3396 360.288H59.7156V358.592H73.1236L72.2276 359.264C72.2276 358.048 71.961 356.971 71.4276 356.032C70.9156 355.072 70.2116 354.325 69.3156 353.792C68.4196 353.259 67.385 352.992 66.2116 352.992C65.0596 352.992 64.025 353.259 63.1076 353.792C62.1903 354.325 61.4756 355.072 60.9636 356.032C60.4516 356.992 60.1956 358.091 60.1956 359.328V359.68C60.1956 360.96 60.473 362.091 61.0276 363.072C61.6036 364.032 62.393 364.789 63.3956 365.344C64.4196 365.877 65.5823 366.144 66.8836 366.144C67.9076 366.144 68.857 365.963 69.7316 365.6C70.6276 365.237 71.3956 364.683 72.0356 363.936L73.3156 365.408C72.569 366.304 71.6303 366.987 70.4996 367.456C69.3903 367.925 68.1636 368.16 66.8196 368.16ZM82.1076 368L75.7716 351.2H77.9476L83.7076 366.784H82.7156L88.6356 351.2H90.5876L96.4436 366.784H95.4516L101.308 351.2H103.388L97.0196 368H94.8756L89.2436 353.344H89.9156L84.2516 368H82.1076ZM107.289 368V345.6H109.241L119.481 363.072H118.457L128.601 345.6H130.553V368H128.281V349.152H128.825L119.481 365.152H118.361L108.953 349.152H109.561V368H107.289ZM144.219 368.16C142.598 368.16 141.136 367.797 139.835 367.072C138.555 366.325 137.542 365.312 136.795 364.032C136.048 362.731 135.675 361.248 135.675 359.584C135.675 357.899 136.048 356.416 136.795 355.136C137.542 353.856 138.555 352.853 139.835 352.128C141.115 351.403 142.576 351.04 144.219 351.04C145.883 351.04 147.355 351.403 148.635 352.128C149.936 352.853 150.95 353.856 151.675 355.136C152.422 356.416 152.795 357.899 152.795 359.584C152.795 361.248 152.422 362.731 151.675 364.032C150.95 365.312 149.936 366.325 148.635 367.072C147.334 367.797 145.862 368.16 144.219 368.16ZM144.219 366.144C145.435 366.144 146.512 365.877 147.451 365.344C148.39 364.789 149.126 364.021 149.659 363.04C150.214 362.037 150.491 360.885 150.491 359.584C150.491 358.261 150.214 357.109 149.659 356.128C149.126 355.147 148.39 354.389 147.451 353.856C146.512 353.301 145.446 353.024 144.251 353.024C143.056 353.024 141.99 353.301 141.051 353.856C140.112 354.389 139.366 355.147 138.811 356.128C138.256 357.109 137.979 358.261 137.979 359.584C137.979 360.885 138.256 362.037 138.811 363.04C139.366 364.021 140.112 364.789 141.051 365.344C141.99 365.877 143.046 366.144 144.219 366.144ZM164.122 368.16C162.522 368.16 161.082 367.797 159.802 367.072C158.543 366.347 157.551 365.344 156.826 364.064C156.1 362.763 155.738 361.269 155.738 359.584C155.738 357.877 156.1 356.384 156.826 355.104C157.551 353.824 158.543 352.832 159.802 352.128C161.082 351.403 162.522 351.04 164.122 351.04C165.594 351.04 166.906 351.371 168.058 352.032C169.231 352.693 170.159 353.664 170.842 354.944C171.546 356.203 171.898 357.749 171.898 359.584C171.898 361.397 171.556 362.944 170.874 364.224C170.191 365.504 169.263 366.485 168.09 367.168C166.938 367.829 165.615 368.16 164.122 368.16ZM164.282 366.144C165.476 366.144 166.543 365.877 167.482 365.344C168.442 364.789 169.188 364.021 169.722 363.04C170.276 362.037 170.554 360.885 170.554 359.584C170.554 358.261 170.276 357.109 169.722 356.128C169.188 355.147 168.442 354.389 167.482 353.856C166.543 353.301 165.476 353.024 164.282 353.024C163.108 353.024 162.052 353.301 161.114 353.856C160.175 354.389 159.428 355.147 158.874 356.128C158.319 357.109 158.042 358.261 158.042 359.584C158.042 360.885 158.319 362.037 158.874 363.04C159.428 364.021 160.175 364.789 161.114 365.344C162.052 365.877 163.108 366.144 164.282 366.144ZM170.618 368V362.944L170.842 359.552L170.522 356.16V344.256H172.794V368H170.618ZM186.257 368.16C184.508 368.16 182.972 367.797 181.649 367.072C180.326 366.325 179.292 365.312 178.545 364.032C177.798 362.731 177.425 361.248 177.425 359.584C177.425 357.92 177.777 356.448 178.481 355.168C179.206 353.888 180.188 352.885 181.425 352.16C182.684 351.413 184.092 351.04 185.649 351.04C187.228 351.04 188.625 351.403 189.841 352.128C191.078 352.832 192.049 353.835 192.753 355.136C193.457 356.416 193.809 357.899 193.809 359.584C193.809 359.691 193.798 359.808 193.777 359.936C193.777 360.043 193.777 360.16 193.777 360.288H179.153V358.592H192.561L191.665 359.264C191.665 358.048 191.398 356.971 190.865 356.032C190.353 355.072 189.649 354.325 188.753 353.792C187.857 353.259 186.822 352.992 185.649 352.992C184.497 352.992 183.462 353.259 182.545 353.792C181.628 354.325 180.913 355.072 180.401 356.032C179.889 356.992 179.633 358.091 179.633 359.328V359.68C179.633 360.96 179.91 362.091 180.465 363.072C181.041 364.032 181.83 364.789 182.833 365.344C183.857 365.877 185.02 366.144 186.321 366.144C187.345 366.144 188.294 365.963 189.169 365.6C190.065 365.237 190.833 364.683 191.473 363.936L192.753 365.408C192.006 366.304 191.068 366.987 189.937 367.456C188.828 367.925 187.601 368.16 186.257 368.16ZM198.434 368V344.256H200.706V368H198.434Z" fill="black"/>
<path d="M279.431 375V358.2H281.207V373.464H290.615V375H279.431ZM293.204 375V362.4H294.908V375H293.204ZM294.068 359.616C293.716 359.616 293.42 359.496 293.18 359.256C292.94 359.016 292.82 358.728 292.82 358.392C292.82 358.056 292.94 357.776 293.18 357.552C293.42 357.312 293.716 357.192 294.068 357.192C294.42 357.192 294.716 357.304 294.956 357.528C295.196 357.752 295.316 358.032 295.316 358.368C295.316 358.72 295.196 359.016 294.956 359.256C294.732 359.496 294.436 359.616 294.068 359.616ZM302.889 375L297.297 362.4H299.073L304.209 374.088H303.369L308.577 362.4H310.257L304.641 375H302.889ZM317.658 375.12C316.346 375.12 315.194 374.848 314.202 374.304C313.21 373.744 312.434 372.984 311.874 372.024C311.314 371.048 311.034 369.936 311.034 368.688C311.034 367.44 311.298 366.336 311.826 365.376C312.37 364.416 313.106 363.664 314.034 363.12C314.978 362.56 316.034 362.28 317.202 362.28C318.386 362.28 319.434 362.552 320.346 363.096C321.274 363.624 322.002 364.376 322.53 365.352C323.058 366.312 323.322 367.424 323.322 368.688C323.322 368.768 323.314 368.856 323.298 368.952C323.298 369.032 323.298 369.12 323.298 369.216H312.33V367.944H322.386L321.714 368.448C321.714 367.536 321.514 366.728 321.114 366.024C320.73 365.304 320.202 364.744 319.53 364.344C318.858 363.944 318.082 363.744 317.202 363.744C316.338 363.744 315.562 363.944 314.874 364.344C314.186 364.744 313.65 365.304 313.266 366.024C312.882 366.744 312.69 367.568 312.69 368.496V368.76C312.69 369.72 312.898 370.568 313.314 371.304C313.746 372.024 314.338 372.592 315.09 373.008C315.858 373.408 316.73 373.608 317.706 373.608C318.474 373.608 319.186 373.472 319.842 373.2C320.514 372.928 321.09 372.512 321.57 371.952L322.53 373.056C321.97 373.728 321.266 374.24 320.418 374.592C319.586 374.944 318.666 375.12 317.658 375.12ZM327.15 375V358.2H333.99C335.782 358.2 337.35 358.56 338.694 359.28C340.054 359.984 341.11 360.968 341.862 362.232C342.614 363.496 342.99 364.952 342.99 366.6C342.99 368.248 342.614 369.704 341.862 370.968C341.11 372.232 340.054 373.224 338.694 373.944C337.35 374.648 335.782 375 333.99 375H327.15ZM328.926 373.464H333.894C335.382 373.464 336.67 373.176 337.758 372.6C338.862 372.008 339.718 371.2 340.326 370.176C340.934 369.136 341.238 367.944 341.238 366.6C341.238 365.24 340.934 364.048 340.326 363.024C339.718 362 338.862 361.2 337.758 360.624C336.67 360.032 335.382 359.736 333.894 359.736H328.926V373.464ZM354.514 375V372.216L354.442 371.76V367.104C354.442 366.032 354.138 365.208 353.53 364.632C352.938 364.056 352.05 363.768 350.866 363.768C350.05 363.768 349.274 363.904 348.538 364.176C347.802 364.448 347.178 364.808 346.666 365.256L345.898 363.984C346.538 363.44 347.306 363.024 348.202 362.736C349.098 362.432 350.042 362.28 351.034 362.28C352.666 362.28 353.922 362.688 354.802 363.504C355.698 364.304 356.146 365.528 356.146 367.176V375H354.514ZM350.17 375.12C349.226 375.12 348.402 374.968 347.698 374.664C347.01 374.344 346.482 373.912 346.114 373.368C345.746 372.808 345.562 372.168 345.562 371.448C345.562 370.792 345.714 370.2 346.018 369.672C346.338 369.128 346.85 368.696 347.554 368.376C348.274 368.04 349.234 367.872 350.434 367.872H354.778V369.144H350.482C349.266 369.144 348.418 369.36 347.938 369.792C347.474 370.224 347.242 370.76 347.242 371.4C347.242 372.12 347.522 372.696 348.082 373.128C348.642 373.56 349.426 373.776 350.434 373.776C351.394 373.776 352.218 373.56 352.906 373.128C353.61 372.68 354.122 372.04 354.442 371.208L354.826 372.384C354.506 373.216 353.946 373.88 353.146 374.376C352.362 374.872 351.37 375.12 350.17 375.12ZM364.758 375.12C363.574 375.12 362.662 374.8 362.022 374.16C361.382 373.52 361.062 372.616 361.062 371.448V359.616H362.766V371.352C362.766 372.088 362.95 372.656 363.318 373.056C363.702 373.456 364.246 373.656 364.95 373.656C365.702 373.656 366.326 373.44 366.822 373.008L367.422 374.232C367.086 374.536 366.678 374.76 366.198 374.904C365.734 375.048 365.254 375.12 364.758 375.12ZM358.806 363.816V362.4H366.606V363.816H358.806ZM378.42 375V372.216L378.348 371.76V367.104C378.348 366.032 378.044 365.208 377.436 364.632C376.844 364.056 375.956 363.768 374.772 363.768C373.956 363.768 373.18 363.904 372.444 364.176C371.708 364.448 371.084 364.808 370.572 365.256L369.804 363.984C370.444 363.44 371.212 363.024 372.108 362.736C373.004 362.432 373.948 362.28 374.94 362.28C376.572 362.28 377.828 362.688 378.708 363.504C379.604 364.304 380.052 365.528 380.052 367.176V375H378.42ZM374.076 375.12C373.132 375.12 372.308 374.968 371.604 374.664C370.916 374.344 370.388 373.912 370.02 373.368C369.652 372.808 369.468 372.168 369.468 371.448C369.468 370.792 369.62 370.2 369.924 369.672C370.244 369.128 370.756 368.696 371.46 368.376C372.18 368.04 373.14 367.872 374.34 367.872H378.684V369.144H374.388C373.172 369.144 372.324 369.36 371.844 369.792C371.38 370.224 371.148 370.76 371.148 371.4C371.148 372.12 371.428 372.696 371.988 373.128C372.548 373.56 373.332 373.776 374.34 373.776C375.3 373.776 376.124 373.56 376.812 373.128C377.516 372.68 378.028 372.04 378.348 371.208L378.732 372.384C378.412 373.216 377.852 373.88 377.052 374.376C376.268 374.872 375.276 375.12 374.076 375.12Z" fill="black"/>
<path d="M99.3097 70L106.99 53.2H108.742L116.422 70H114.55L107.494 54.232H108.214L101.158 70H99.3097ZM102.334 65.512L102.862 64.072H112.63L113.158 65.512H102.334ZM123.956 70.12C122.708 70.12 121.588 69.848 120.596 69.304C119.62 68.744 118.852 67.984 118.292 67.024C117.732 66.048 117.452 64.936 117.452 63.688C117.452 62.424 117.732 61.312 118.292 60.352C118.852 59.392 119.62 58.64 120.596 58.096C121.588 57.552 122.708 57.28 123.956 57.28C125.028 57.28 125.996 57.488 126.86 57.904C127.724 58.32 128.404 58.944 128.9 59.776L127.628 60.64C127.196 60 126.66 59.528 126.02 59.224C125.38 58.92 124.684 58.768 123.932 58.768C123.036 58.768 122.228 58.976 121.508 59.392C120.788 59.792 120.22 60.36 119.804 61.096C119.388 61.832 119.18 62.696 119.18 63.688C119.18 64.68 119.388 65.544 119.804 66.28C120.22 67.016 120.788 67.592 121.508 68.008C122.228 68.408 123.036 68.608 123.932 68.608C124.684 68.608 125.38 68.456 126.02 68.152C126.66 67.848 127.196 67.384 127.628 66.76L128.9 67.624C128.404 68.44 127.724 69.064 126.86 69.496C125.996 69.912 125.028 70.12 123.956 70.12ZM136.372 70.12C135.188 70.12 134.276 69.8 133.636 69.16C132.996 68.52 132.676 67.616 132.676 66.448V54.616H134.38V66.352C134.38 67.088 134.564 67.656 134.932 68.056C135.316 68.456 135.86 68.656 136.564 68.656C137.316 68.656 137.94 68.44 138.436 68.008L139.036 69.232C138.7 69.536 138.292 69.76 137.812 69.904C137.348 70.048 136.868 70.12 136.372 70.12ZM130.42 58.816V57.4H138.22V58.816H130.42ZM142.138 70V57.4H143.842V70H142.138ZM143.002 54.616C142.65 54.616 142.354 54.496 142.114 54.256C141.874 54.016 141.754 53.728 141.754 53.392C141.754 53.056 141.874 52.776 142.114 52.552C142.354 52.312 142.65 52.192 143.002 52.192C143.354 52.192 143.65 52.304 143.89 52.528C144.13 52.752 144.25 53.032 144.25 53.368C144.25 53.72 144.13 54.016 143.89 54.256C143.666 54.496 143.37 54.616 143.002 54.616ZM151.823 70L146.231 57.4H148.007L153.143 69.088H152.303L157.511 57.4H159.191L153.575 70H151.823ZM161.591 70V57.4H163.295V70H161.591ZM162.455 54.616C162.103 54.616 161.807 54.496 161.567 54.256C161.327 54.016 161.207 53.728 161.207 53.392C161.207 53.056 161.327 52.776 161.567 52.552C161.807 52.312 162.103 52.192 162.455 52.192C162.807 52.192 163.103 52.304 163.343 52.528C163.583 52.752 163.703 53.032 163.703 53.368C163.703 53.72 163.583 54.016 163.343 54.256C163.119 54.496 162.823 54.616 162.455 54.616ZM172.02 70.12C170.836 70.12 169.924 69.8 169.284 69.16C168.644 68.52 168.324 67.616 168.324 66.448V54.616H170.028V66.352C170.028 67.088 170.212 67.656 170.58 68.056C170.964 68.456 171.508 68.656 172.212 68.656C172.964 68.656 173.588 68.44 174.084 68.008L174.684 69.232C174.348 69.536 173.94 69.76 173.46 69.904C172.996 70.048 172.516 70.12 172.02 70.12ZM166.068 58.816V57.4H173.868V58.816H166.068ZM177.648 74.776C177.056 74.776 176.488 74.68 175.944 74.488C175.416 74.296 174.96 74.008 174.576 73.624L175.368 72.352C175.688 72.656 176.032 72.888 176.4 73.048C176.784 73.224 177.208 73.312 177.672 73.312C178.232 73.312 178.712 73.152 179.112 72.832C179.528 72.528 179.92 71.984 180.288 71.2L181.104 69.352L181.296 69.088L186.48 57.4H188.16L181.848 71.512C181.496 72.328 181.104 72.976 180.672 73.456C180.256 73.936 179.8 74.272 179.304 74.464C178.808 74.672 178.256 74.776 177.648 74.776ZM181.008 70.36L175.2 57.4H176.976L182.112 68.968L181.008 70.36ZM193.865 72.4L201.785 49.792H203.345L195.425 72.4H193.865ZM213.105 61.336H221.985V62.872H213.105V61.336ZM213.297 70H211.521V53.2H223.041V54.736H213.297V70ZM226.114 70V57.4H227.746V60.832L227.578 60.232C227.93 59.272 228.522 58.544 229.354 58.048C230.186 57.536 231.218 57.28 232.45 57.28V58.936C232.386 58.936 232.322 58.936 232.258 58.936C232.194 58.92 232.13 58.912 232.066 58.912C230.738 58.912 229.698 59.32 228.946 60.136C228.194 60.936 227.818 62.08 227.818 63.568V70H226.114ZM242.518 70V67.216L242.446 66.76V62.104C242.446 61.032 242.142 60.208 241.534 59.632C240.942 59.056 240.054 58.768 238.87 58.768C238.054 58.768 237.278 58.904 236.542 59.176C235.806 59.448 235.182 59.808 234.67 60.256L233.902 58.984C234.542 58.44 235.31 58.024 236.206 57.736C237.102 57.432 238.046 57.28 239.038 57.28C240.67 57.28 241.926 57.688 242.806 58.504C243.702 59.304 244.15 60.528 244.15 62.176V70H242.518ZM238.174 70.12C237.23 70.12 236.406 69.968 235.702 69.664C235.014 69.344 234.486 68.912 234.118 68.368C233.75 67.808 233.566 67.168 233.566 66.448C233.566 65.792 233.718 65.2 234.022 64.672C234.342 64.128 234.854 63.696 235.558 63.376C236.278 63.04 237.238 62.872 238.438 62.872H242.782V64.144H238.486C237.27 64.144 236.422 64.36 235.942 64.792C235.478 65.224 235.246 65.76 235.246 66.4C235.246 67.12 235.526 67.696 236.086 68.128C236.646 68.56 237.43 68.776 238.438 68.776C239.398 68.776 240.222 68.56 240.91 68.128C241.614 67.68 242.126 67.04 242.446 66.208L242.83 67.384C242.51 68.216 241.95 68.88 241.15 69.376C240.366 69.872 239.374 70.12 238.174 70.12ZM254.154 74.776C253.002 74.776 251.898 74.608 250.842 74.272C249.786 73.936 248.93 73.456 248.274 72.832L249.138 71.536C249.73 72.064 250.458 72.48 251.322 72.784C252.202 73.104 253.13 73.264 254.106 73.264C255.706 73.264 256.882 72.888 257.634 72.136C258.386 71.4 258.762 70.248 258.762 68.68V65.536L259.002 63.376L258.834 61.216V57.4H260.466V68.464C260.466 70.64 259.93 72.232 258.858 73.24C257.802 74.264 256.234 74.776 254.154 74.776ZM253.842 69.52C252.642 69.52 251.562 69.264 250.602 68.752C249.642 68.224 248.882 67.496 248.322 66.568C247.778 65.64 247.506 64.576 247.506 63.376C247.506 62.176 247.778 61.12 248.322 60.208C248.882 59.28 249.642 58.56 250.602 58.048C251.562 57.536 252.642 57.28 253.842 57.28C254.962 57.28 255.97 57.512 256.866 57.976C257.762 58.44 258.474 59.128 259.002 60.04C259.53 60.952 259.794 62.064 259.794 63.376C259.794 64.688 259.53 65.8 259.002 66.712C258.474 67.624 257.762 68.32 256.866 68.8C255.97 69.28 254.962 69.52 253.842 69.52ZM254.01 68.008C254.938 68.008 255.762 67.816 256.482 67.432C257.202 67.032 257.77 66.488 258.186 65.8C258.602 65.096 258.81 64.288 258.81 63.376C258.81 62.464 258.602 61.664 258.186 60.976C257.77 60.288 257.202 59.752 256.482 59.368C255.762 58.968 254.938 58.768 254.01 58.768C253.098 58.768 252.274 58.968 251.538 59.368C250.818 59.752 250.25 60.288 249.834 60.976C249.434 61.664 249.234 62.464 249.234 63.376C249.234 64.288 249.434 65.096 249.834 65.8C250.25 66.488 250.818 67.032 251.538 67.432C252.274 67.816 253.098 68.008 254.01 68.008ZM280.952 57.28C281.976 57.28 282.864 57.48 283.616 57.88C284.384 58.264 284.976 58.856 285.392 59.656C285.824 60.456 286.04 61.464 286.04 62.68V70H284.336V62.848C284.336 61.52 284.016 60.52 283.376 59.848C282.752 59.16 281.864 58.816 280.712 58.816C279.848 58.816 279.096 59 278.456 59.368C277.832 59.72 277.344 60.24 276.992 60.928C276.656 61.6 276.488 62.416 276.488 63.376V70H274.784V62.848C274.784 61.52 274.464 60.52 273.824 59.848C273.184 59.16 272.288 58.816 271.136 58.816C270.288 58.816 269.544 59 268.904 59.368C268.264 59.72 267.768 60.24 267.416 60.928C267.08 61.6 266.912 62.416 266.912 63.376V70H265.208V57.4H266.84V60.808L266.576 60.208C266.96 59.296 267.576 58.584 268.424 58.072C269.288 57.544 270.304 57.28 271.472 57.28C272.704 57.28 273.752 57.592 274.616 58.216C275.48 58.824 276.04 59.744 276.296 60.976L275.624 60.712C275.992 59.688 276.64 58.864 277.568 58.24C278.512 57.6 279.64 57.28 280.952 57.28ZM296.013 70.12C294.701 70.12 293.549 69.848 292.557 69.304C291.565 68.744 290.789 67.984 290.229 67.024C289.669 66.048 289.389 64.936 289.389 63.688C289.389 62.44 289.653 61.336 290.181 60.376C290.725 59.416 291.461 58.664 292.389 58.12C293.333 57.56 294.389 57.28 295.557 57.28C296.741 57.28 297.789 57.552 298.701 58.096C299.629 58.624 300.357 59.376 300.885 60.352C301.413 61.312 301.677 62.424 301.677 63.688C301.677 63.768 301.669 63.856 301.653 63.952C301.653 64.032 301.653 64.12 301.653 64.216H290.685V62.944H300.741L300.069 63.448C300.069 62.536 299.869 61.728 299.469 61.024C299.085 60.304 298.557 59.744 297.885 59.344C297.213 58.944 296.437 58.744 295.557 58.744C294.693 58.744 293.917 58.944 293.229 59.344C292.541 59.744 292.005 60.304 291.621 61.024C291.237 61.744 291.045 62.568 291.045 63.496V63.76C291.045 64.72 291.253 65.568 291.669 66.304C292.101 67.024 292.693 67.592 293.445 68.008C294.213 68.408 295.085 68.608 296.061 68.608C296.829 68.608 297.541 68.472 298.197 68.2C298.869 67.928 299.445 67.512 299.925 66.952L300.885 68.056C300.325 68.728 299.621 69.24 298.773 69.592C297.941 69.944 297.021 70.12 296.013 70.12ZM311.578 57.28C312.602 57.28 313.498 57.48 314.266 57.88C315.05 58.264 315.658 58.856 316.09 59.656C316.538 60.456 316.762 61.464 316.762 62.68V70H315.058V62.848C315.058 61.52 314.722 60.52 314.05 59.848C313.394 59.16 312.466 58.816 311.266 58.816C310.37 58.816 309.586 59 308.914 59.368C308.258 59.72 307.746 60.24 307.378 60.928C307.026 61.6 306.85 62.416 306.85 63.376V70H305.146V57.4H306.778V60.856L306.514 60.208C306.914 59.296 307.554 58.584 308.434 58.072C309.314 57.544 310.362 57.28 311.578 57.28ZM325.348 70.12C324.164 70.12 323.252 69.8 322.612 69.16C321.972 68.52 321.652 67.616 321.652 66.448V54.616H323.356V66.352C323.356 67.088 323.54 67.656 323.908 68.056C324.292 68.456 324.836 68.656 325.54 68.656C326.292 68.656 326.916 68.44 327.412 68.008L328.012 69.232C327.676 69.536 327.268 69.76 326.788 69.904C326.324 70.048 325.844 70.12 325.348 70.12ZM319.396 58.816V57.4H327.196V58.816H319.396Z" fill="black"/>
</svg>
